<?xml version="1.0" standalone="no"?>
<!DOCTYPE svg PUBLIC "-//W3C//DTD SVG 1.1//EN" "http://www.w3.org/Graphics/SVG/1.1/DTD/svg11.dtd" >
<svg xmlns="http://www.w3.org/2000/svg">
<metadata>
Created by FontForge 20120731 at Sat Feb 18 10:37:24 2017
 By admin
</metadata>
<defs>
<font id="iconfont" horiz-adv-x="1024" >
  <font-face 
    font-family="iconfont"
    font-weight="500"
    font-stretch="normal"
    units-per-em="1024"
    panose-1="2 0 6 3 0 0 0 0 0 0"
    ascent="896"
    descent="-128"
    x-height="792"
    bbox="-7 -212 1024 896"
    underline-thickness="0"
    underline-position="0"
    unicode-range="U+0078-E992"
  />
<missing-glyph 
 />
    <glyph glyph-name=".notdef" 
 />
    <glyph glyph-name=".notdef" 
 />
    <glyph glyph-name=".null" horiz-adv-x="0" 
 />
    <glyph glyph-name="nonmarkingreturn" horiz-adv-x="341" 
 />
    <glyph glyph-name="x" unicode="x" horiz-adv-x="1001" 
d="M281 543q-27 -1 -53 -1h-83q-18 0 -36.5 -6t-32.5 -18.5t-23 -32t-9 -45.5v-76h912v41q0 16 -0.5 30t-0.5 18q0 13 -5 29t-17 29.5t-31.5 22.5t-49.5 9h-133v-97h-438v97zM955 310v-52q0 -23 0.5 -52t0.5 -58t-10.5 -47.5t-26 -30t-33 -16t-31.5 -4.5q-14 -1 -29.5 -0.5
t-29.5 0.5h-32l-45 128h-439l-44 -128h-29h-34q-20 0 -45 1q-25 0 -41 9.5t-25.5 23t-13.5 29.5t-4 30v167h911zM163 247q-12 0 -21 -8.5t-9 -21.5t9 -21.5t21 -8.5q13 0 22 8.5t9 21.5t-9 21.5t-22 8.5zM316 123q-8 -26 -14 -48q-5 -19 -10.5 -37t-7.5 -25t-3 -15t1 -14.5
t9.5 -10.5t21.5 -4h37h67h81h80h64h36q23 0 34 12t2 38q-5 13 -9.5 30.5t-9.5 34.5q-5 19 -11 39h-368zM336 498v228q0 11 2.5 23t10 21.5t20.5 15.5t34 6h188q31 0 51.5 -14.5t20.5 -52.5v-227h-327z" />
    <glyph glyph-name="shezhi" unicode="&#xe600;" 
d="M1017 290q2 -12 -1 -29.5t-10.5 -35.5t-17.5 -32.5t-22.5 -20.5t-21.5 -6t-20 4q-11 3 -26 5.5t-31 1t-32 -6.5t-27 -17q-25 -26 -29 -59t9 -62q11 -21 -3 -41q-6 -8 -19 -17t-29 -16t-33.5 -11t-30.5 -4q-9 0 -17.5 7t-11.5 15h-1q-11 32 -38 55t-63 23q-35 0 -63 -23
t-40 -54q-5 -12 -15 -17.5t-23 -5.5q-14 0 -32 5t-36 12.5t-32 18t-21 20.5q-6 7 -6.5 17t8.5 27q11 24 8.5 54t-26.5 56q-14 15 -34.5 19.5t-39.5 3.5q-21 -1 -44 -8q-14 -4 -28 2q-12 4 -21.5 19t-17 33t-12 37t-1.5 31q3 22 20 28q31 13 55.5 41t24.5 63q0 36 -24.5 62.5
t-55.5 38.5q-9 3 -15 15t-6 24q0 13 4 29.5t10.5 32t15 28.5t19.5 19q8 5 15.5 4t16.5 -4q31 -13 64.5 -8t58.5 29q13 13 18.5 30.5t7 35t0 32t-2.5 20.5q-2 6 -3.5 14.5t1.5 14.5q6 14 22 24.5t34.5 18t35.5 11t28 3.5q13 0 20.5 -8.5t10.5 -18.5q12 -27 37.5 -48t60.5 -21
t63 20t39 50q4 9 13 17.5t18 8.5q14 0 31 -4t33.5 -11.5t30 -18.5t21.5 -24q6 -9 4 -18.5t-5 -13.5q-13 -30 -8 -62.5t30 -57t60.5 -27.5t66.5 12q8 5 20 4t20 -9q15 -15 27 -44t16 -59q2 -17 -5.5 -27t-16.5 -13q-31 -11 -53.5 -39t-22.5 -64q0 -35 18.5 -61t49.5 -37
q7 -5 12 -9q12 -9 16 -23zM541 198q46 0 87 17t71 48t47.5 71.5t17.5 86.5t-17.5 86.5t-47.5 70.5t-71 47.5t-87 17.5t-86.5 -17.5t-71 -47.5t-48 -70.5t-17.5 -86.5t17.5 -86.5t48 -71.5t71 -48t86.5 -17z" />
    <glyph glyph-name="Left" unicode="&#xe601;" 
d="M752 700l-49 49l-448 -448l448 -449l49 49l-400 400zM752 700z" />
    <glyph glyph-name="shouji" unicode="&#xe647;" 
d="M703 751h-382q-43 0 -73.5 -30.5t-30.5 -73.5v-693q0 -43 30.5 -73.5t73.5 -30.5h382q43 0 73.5 30.5t30.5 73.5v693q0 43 -30.5 73.5t-73.5 30.5zM477 716h70q7 0 12 -5t5 -12t-5 -12t-12 -5h-70q-7 0 -12 5t-5 12t5 12t12 5zM512 -108q-18 0 -31 13t-13 31.5t13 31.5
t31 13t31 -13t13 -31.5t-13 -31.5t-31 -13zM737 40q0 -7 -5 -12t-12 -5h-416q-7 0 -12 5t-5 12v590q0 7 5 12t12 5h416q7 0 12 -5t5 -12v-590z" />
    <glyph glyph-name="unie646" unicode="&#xe658;" 
d="M-7 832v0v0zM476 140h7q3 0 16 1t26 5t31 14t34.5 24t36 38.5t35.5 55.5t31 76.5t25 100.5q15 86 -7 157.5t-83.5 114.5t-151.5 43q-93 0 -156 -43t-85.5 -114.5t-5.5 -157.5q46 -245 177 -302q30 -13 70 -13v0zM614 59q0 5 1 18q-66 8 -137 8q-221 0 -361 -61
q-45 -20 -67.5 -49.5t-22.5 -87.5v-87h759q-77 32 -124.5 102.5t-47.5 156.5v0zM855 39q6 8 13 15l13 13q2 2 5 4l14 9q3 2 7 5q15 7 30 6q23 -2 38 -11q7 -4 13 -9.5t10.5 -12.5t7.5 -14.5t5 -16.5q3 -17 2 -35t-6.5 -34.5t-13.5 -30.5q-2 -6 -5 -10l-5 -9l-6 -8
q-6 -6 -10.5 -11.5t-8.5 -10.5q-8 -7 -15.5 -14.5t-15.5 -12.5q-15 -14 -29.5 -23t-26 -14.5t-18.5 -5.5q-8 0 -19 5.5t-24 14.5q-14 9 -29 22q-14 13 -29 26q-9 10 -20 21.5t-20.5 26t-16.5 31.5t-7.5 36t4 35.5t14 29t23.5 21.5t30 13q9 1 18 0q4 0 8.5 -1t9.5 -3
q7 -4 15 -8l5 -2.5t5 -3.5l4 -4q17 -12 31 -29v0z" />
    <glyph glyph-name="msnui-logout" unicode="&#xe63b;" horiz-adv-x="1042" 
d="M580 237h120v-186q0 -32 -9.5 -56t-25.5 -39t-37.5 -22t-46.5 -7h-430q-24 0 -46.5 9t-39.5 25.5t-27.5 39t-10.5 49.5v673q0 23 11 44.5t28.5 38t39 27t43.5 10.5h428q25 0 47.5 -11.5t39.5 -28.5t26.5 -38.5t9.5 -41.5v-179h-120v186h-430l-1 -680h431v187zM999 419
q36 -29 2 -58q-20 -14 -43 -35.5t-47.5 -44.5t-49 -45.5t-45.5 -38.5q-22 -18 -38 -18t-16 23q2 14 0.5 34.5t-1.5 35.5q0 16 -12 20t-28 4h-99q-33 0 -69.5 0.5t-69.5 0.5h-99q-8 0 -17.5 1.5t-16.5 6.5t-11.5 13.5t-4.5 22.5q0 18 -0.5 43.5t0.5 45.5q0 26 12.5 35.5
t41.5 8.5h88q31 0 67 -0.5t68 -0.5h95q25 -1 42 4t17 22q0 13 1 30.5t1 30.5q0 23 12 28.5t31 -8.5q18 -16 43 -37t50 -43t50 -43.5t46 -37.5z" />
    <glyph glyph-name="shijian" unicode="&#xe630;" 
d="M512 812q-104 0 -199 -40.5t-163.5 -109t-109 -163.5t-40.5 -199t40.5 -199t109 -163.5t163.5 -109t199 -40.5t199 40.5t163.5 109t109 163.5t40.5 199t-40.5 199t-109 163.5t-163.5 109t-199 40.5v0zM512 -130q-117 0 -216 57.5t-156.5 156.5t-57.5 216t57.5 216
t156.5 156.5t216 57.5t216 -57.5t156.5 -156.5t57.5 -216t-57.5 -216t-156.5 -156.5t-216 -57.5v0zM561 278q-9 10 -16 26.5t-8 29.5l-15 280q0 14 -8.5 23.5t-20 9.5t-20 -9.5t-8.5 -23.5l-16 -285q-1 -32 1 -50.5t27 -39.5l213 -190q10 -9 23 -9t21.5 9t8 22t-9.5 23
l-172 184v0zM561 278z" />
    <glyph glyph-name="shezhi1" unicode="&#xe62d;" 
d="M511.5 564q-74.5 0 -127 -52.5t-52.5 -126.5t52.5 -126.5t127 -52.5t127 52.5t52.5 126.5t-52.5 126.5t-127 52.5zM511.5 250q-55.5 0 -95 39.5t-39.5 95t39.5 95t95 39.5t95 -39.5t39.5 -95t-39.5 -95t-95 -39.5zM960 295v179l-130 22q-6 19 -15 35l77 107l-127 127
l-107 -77q-16 9 -35 15l-22 130h-179l-22 -130q-14 -4 -35 -15l-107 76l-126 -126l76 -107q-9 -17 -15 -35l-130 -22v-179l130 -21q7 -21 16 -37l-77 -106l127 -127l107 76q20 -9 34 -13l22 -130h179l22 130q20 6 36 15l107 -77l127 127l-77 107q10 20 14 35zM787 286
q-4 -11 -11 -27q-12 -24 4 -46l54 -77l-73 -73l-76 55q-11 9 -26 9q-11 0 -21 -6q-13 -7 -29 -12q-26 -8 -30 -35l-16 -93h-103l-15 93q-5 28 -32 36q-11 3 -28 11q-9 4 -19 4q-14 0 -26 -8l-76 -55l-73 73l54 76q16 23 3 47q-7 12 -12 29q-8 26 -35 31l-93 15v103l93 16
q27 4 35 31q5 14 11 28q13 24 -3 46l-54 76l73 72l76 -53q11 -9 26 -9q10 0 20 5q17 9 28 12q27 8 32 36l15 92h103l16 -92q4 -28 31 -36q14 -4 26 -11q10 -6 22 -6q15 0 26 9l77 55l73 -73l-55 -76q-17 -24 -3 -49q7 -11 11 -26q8 -27 36 -31l92 -16v-103l-92 -15
q-28 -5 -36 -32z" />
    <glyph glyph-name="xiaoxi" unicode="&#xe613;" horiz-adv-x="1028" 
d="M278 -132l2 213q-107 23 -175 108t-68 195v41q0 128 91 219t220 91h332q129 0 220 -91t91 -219v-41q0 -128 -91 -219.5t-220 -91.5h-159zM348 694q-112 0 -190.5 -79t-78.5 -190v-41q0 -99 63.5 -174t161.5 -91l17 -3l1 -18l-1 -139l185 156h174q111 0 190 79t79 190v41
q0 111 -79 190t-190 79h-332zM343 393.5q0 12.5 8.5 21.5t20.5 9q13 0 21 -9t8 -21q0 -14 -8 -22t-21 -8q-13 1 -21 9t-8 20.5zM372 343h-1q-21 1 -34.5 15t-13.5 36q0 21 14.5 35.5t34.5 14.5q21 0 35.5 -14.5t14.5 -36t-14 -36t-36 -14.5zM372 403q-8 0 -8 -9t8 -9
q9 0 9 9t-9 9zM499 393.5q0 12.5 8 21.5t20 9q13 0 21.5 -9t8.5 -21q0 -14 -8.5 -22t-21.5 -8q-13 1 -20.5 9t-7.5 20.5zM527 343h-1q-21 1 -34.5 15t-13.5 36q0 21 14.5 35.5t34.5 14.5q21 0 35.5 -14.5t14.5 -36t-14 -36t-36 -14.5zM527 403q-8 0 -8 -9t9 -9q8 0 8 9t-9 9
zM654 393.5q0 12.5 8 21.5t20 9q13 0 21.5 -9t8.5 -21q0 -14 -8.5 -22t-21.5 -8q-13 1 -20.5 9t-7.5 20.5zM682 343v0q-22 1 -35.5 15t-13.5 36q0 21 14.5 35.5t34.5 14.5q22 0 36.5 -14.5t14.5 -36t-14.5 -36t-36.5 -14.5zM682 403q-7 0 -7 -9t8 -9t8 9t-9 9z" />
    <glyph glyph-name="weixin" unicode="&#xe6f7;" 
d="M595 298q-11 0 -20 -9t-9 -20t9 -20t20 -9q16 0 26.5 9t10.5 20.5t-10.5 20t-26.5 8.5zM755 298q-10 0 -19.5 -9t-9.5 -20t9.5 -20t19.5 -9q16 0 26.5 9t10.5 20.5t-10.5 20t-26.5 8.5zM297 510q-18 0 -31 -10.5t-13 -26t13 -26t31 -10.5q16 0 26 10t10 26.5t-10 26.5
t-26 10zM500 437q17 0 27 10t10 26.5t-10 26.5t-27 10t-30 -10.5t-13 -26t13 -26t30 -10.5zM511.5 809q-103.5 0 -198 -40.5t-163 -109t-109 -163t-40.5 -198t40.5 -198t109 -163t163 -109t198 -40.5t198 40.5t163 109t109 163t40.5 198t-40.5 198t-109 163t-163 109
t-198 40.5zM391 138q-28 0 -102 15l-102 -51l30 87q-117 82 -117 197q0 103 85.5 175t205.5 72q108 0 191.5 -58t102.5 -146q-15 2 -28 2q-103 0 -175.5 -67.5t-72.5 -163.5q0 -30 9 -61q-14 -1 -27 -1zM821 36l22 -73l-80 44q-59 -15 -88 -15q-103 0 -175 62t-72 149.5
t72 149.5t175 62q100 0 174 -62.5t74 -148.5q0 -92 -102 -168z" />
    <glyph glyph-name="zhutihuodong" unicode="&#xe61b;" 
d="M959 300q0 91 -35 174t-95 143t-143 95.5t-174 35.5t-174 -35.5t-143 -95.5t-95.5 -143t-35.5 -174t35.5 -174t95.5 -143t143 -95t174 -35q149 0 269 91q5 6 5 13q0 8 -5.5 14t-13.5 6q-9 0 -15 -6v0q-108 -79 -240 -79q-110 0 -203.5 54t-147.5 147.5t-54 203.5
t54 203.5t147.5 148t203.5 54.5t203.5 -54.5t148 -148t54.5 -203.5q0 -102 -46 -189v0q-2 -4 -2 -6q0 -8 6 -14t14 -6q14 0 19 13v0q50 98 50 205v0zM513.5 275q-4.5 0 -8.5 2l-262 109q-13 6 -13 21t13 21l262 109q8 4 17 0l261 -109q14 -6 14 -21t-14 -21l-261 -109
q-4 -2 -8.5 -2zM310 407l203 -85l203 85l-203 85zM513.5 175q-4.5 0 -8.5 1l-262 110q-8 3 -11.5 11.5t0 17t12 12.5t17.5 0l252 -106l253 106q8 3 17 -0.5t12.5 -12t0 -17t-12.5 -11.5l-261 -110q-4 -1 -8.5 -1zM513.5 76q-4.5 0 -8.5 2l-262 109q-8 4 -11.5 12.5t0 17
t12 12t17.5 0.5l252 -106l253 106q8 3 17 -0.5t12.5 -12t0 -17t-12.5 -12.5l-261 -109q-4 -2 -8.5 -2z" />
    <glyph glyph-name="you" unicode="&#xe6da;" 
d="M642 307q14 -12 0 -24l-309 -271q-7 -6 -7.5 -14.5t5 -15.5t14.5 -7.5t16 5.5l309 271q21 18 21 44t-20 44l-310 281q-7 6 -15.5 5.5t-14.5 -7t-5.5 -15.5t6.5 -15z" />
    <glyph glyph-name="mima" unicode="&#xe692;" 
d="M500 207h24q14 0 24.5 -10.5t10.5 -24.5v-163q0 -14 -10.5 -24.5t-24.5 -10.5h-24q-14 0 -24.5 10.5t-10.5 24.5v163q0 14 10.5 24.5t24.5 10.5zM884 323v-419q0 -19 -13.5 -32.5t-32.5 -13.5h-652q-19 0 -32.5 13.5t-13.5 32.5v419h744zM954 393h-884v-489q0 -48 34 -82
t82 -34h652q48 0 82 34t34 82v489v0zM861 393h-70v70q0 116 -83 197.5t-196 81.5q-114 0 -196.5 -82.5t-82.5 -196.5v-70h-70v70q0 93 47 174t127.5 128t174.5 47q93 0 173 -45.5t128 -126.5t48 -177v-70z" />
    <glyph glyph-name="erweima" unicode="&#xe695;" 
d="M362 748h-298v-299h298v299zM303 509h-179v179h179v-179zM64 -147h298v298h-298v-298zM124 91h179v-179h-179v179zM243 270v-59h60h59v59h-59h-60zM661 -88h59v-59h-59v59zM482 748h59v-60h-59v60zM64 270h60v-59h-60v59zM899 211v-60h-59v-60h59v-59v-60h60v60v59v60v60
v59h-60h-59v-59h59zM840 390v-60h59h60v60h-60h-59zM780 211h60v-60h-60v60zM780 390h-60v-60v-60h-59v60v60h-179v59v60h-60v-60v-59h-119h-60h-60h-59h-60v-60h60v-60h59h60v60h60h59v-60h60v-59v-60v-60v-59h60v59v60h59v-60h60v-59h60v59h59v-59h-59v-60h59v-60h60h60
v-59h59v59v60h-59h-60v60h60v59h-60v60h-60h-59h-60v60h60h59h60v59h60v60h-60v60zM601 270h-60v-59h-59v59v60h119v-60zM601 -28h60v-60h-60v60zM661 748v-299h298v299h-298zM899 509h-179v179h179v-179zM541 449h60v60v60v59h-60h-59v-59v-60h59v-60zM422 688h60v-60h-60
v60zM541 -28v60h-59v-60h-60v-60v-59h60h59h60v59h-60v60z" />
    <glyph glyph-name="reli" unicode="&#xe643;" 
d="M477 630q25 -34 28.5 -63.5t-5.5 -46t-16.5 -36.5t-2.5 -35q5 -13 16.5 -19t25.5 -8.5t29 -8t30 -22t24 -46.5q8 -33 0 -57.5t-26.5 -48.5t-37.5 -42t-31.5 -38.5t-8.5 -38.5q4 -21 20.5 -34t34 -18.5t31.5 -18.5t14 -34q0 -30 -10 -58q44 42 51 69q4 18 -5 30.5t-22 19
t-24.5 21.5t-11.5 37t9 34.5t21 17.5t30 17.5t31 30.5q12 18 8.5 32.5t-11.5 32.5t-16 34t-5.5 39t20.5 47q-8 -32 1 -55.5t27 -38t37 -27.5t33.5 -31t14.5 -41q0 -24 -7.5 -35.5t-17.5 -14t-22 -15t-18 -36.5q-6 -19 -2.5 -34t10.5 -23t13.5 -20t8 -25.5t-8.5 -39.5
q-9 -25 -36 -43t-63 -27.5t-61.5 -13.5t-50.5 -6q-3 -1 -12 -1q-24 0 -59 4.5t-78 13.5t-77.5 28.5t-44.5 45.5q-9 23 -8 40t8 25.5t14 20t10.5 23t-2.5 34.5q-7 23 -14 36.5t-11 17t-6.5 15.5t-2.5 37q0 22 11 40t25.5 29t28 27.5t19 36t-1.5 54.5q18 -23 22 -46t-2 -39.5
t-11.5 -35t-8 -32.5t10.5 -33q13 -18 28.5 -30t24.5 -16.5t15.5 -17t6.5 -35.5q0 -21 -11.5 -36t-24.5 -22t-21.5 -19.5t-4.5 -29.5q5 -21 32 -50q-1 22 10 65q9 31 30 60t40 46.5t32.5 42t9.5 49.5q-4 21 -21 34t-36.5 19t-38.5 19t-26 32t1 59q8 34 24.5 64t31 46t28 36
t16.5 35.5t-4 44.5zM420 768l21 -150q5 -21 0.5 -31.5t-25.5 -36.5q-45 -56 -63 -104l-110 144l43 -179q3 -12 3 -21.5t-1 -16t-6.5 -13.5t-9.5 -11.5t-14 -12.5q-17 -15 -26 -25t-19 -32t-10 -47q0 -31 4.5 -47t14.5 -30q10 -13 17 -39q2 -12 1 -16t-8 -14
q-8 -11 -12 -18.5t-9 -22t-3 -33.5t10 -42q9 -23 30.5 -42t47 -30.5t57 -20.5t57 -13.5t51.5 -7t36.5 -2.5h15.5h17q35 3 67 9.5t69.5 18.5t66 34.5t39.5 52.5q9 22 11 41t-3 34t-9 22.5t-12 17.5t-9 14.5t2 16.5q4 13 7.5 17.5t12.5 8.5q13 8 22 15.5t16.5 25.5t7.5 44
q1 20 -5.5 37t-19 31t-21.5 21.5t-25 18.5q-31 22 -40 36t-3 40l43 178l-111 -146q-12 -16 -19 -32q-13 17 -30.5 28t-28 14.5t-26.5 6.5q-11 2 -14 4q0 4 8 21t12 29.5t6.5 35t-6.5 49t-29 55.5zM440 185q-10 21 -39 40q-22 15 -35 32q-3 4 -2.5 10.5t6.5 24.5
q19 -17 57 -32q20 -9 27.5 -14t8.5 -11q4 -20 -23 -50v0zM629 244q7 12 11 23q2 -7 -1 -11q-4 -7 -10 -12v0zM543 120q-3 3 -3 8q-1 2 2 7v-1q0 -7 1 -14v0z" />
    <glyph glyph-name="icon32209" unicode="&#xe60e;" 
d="M656 73q-3 -23 0 -32q59 -11 77.5 -24t18.5 -34q0 -28 -72 -49t-168 -21q-100 0 -170 20.5t-70 49.5q0 21 20 35t76 23v32q-61 -12 -94.5 -35.5t-33.5 -54.5q0 -30 41 -53.5t102 -34.5t129 -11t129 11t102 34.5t41 53.5q0 32 -33.5 56t-94.5 34zM496 -20l-38 45
q-17 18 -49 60.5t-76.5 107t-76.5 133.5t-32 115q0 108 79.5 185t192.5 77t192.5 -76t79.5 -186q0 -22 -7 -48.5t-20 -55t-28.5 -57.5t-35 -59t-36.5 -55t-36.5 -51t-31.5 -41.5t-25 -31.5t-14 -17zM496 642q-85 0 -146.5 -59t-61.5 -142q0 -55 64 -160t144 -202
q82 103 145 205.5t63 156.5q0 84 -61 142.5t-147 58.5zM496 348q-48 0 -81.5 33.5t-33.5 81.5t33.5 81.5t81.5 33.5t81.5 -33.5t33.5 -81.5t-33.5 -81.5t-81.5 -33.5zM496 514q-22 0 -36.5 -14.5t-14.5 -36t14.5 -36.5t36.5 -15t36.5 15t14.5 36.5t-14.5 36t-36.5 14.5z" />
    <glyph glyph-name="weibiaoti1" unicode="&#xe60f;" 
d="M859 664q-71 72 -163 110t-193 38t-192.5 -38t-163 -110t-109.5 -164t-38 -193.5t38 -194t109.5 -164t163 -109.5t192.5 -38t193 38t163 110q97 97 131 227t0 260.5t-131 227.5v0v0zM813 -5q-62 -62 -142 -95.5t-167.5 -33.5t-167.5 33.5t-142 95.5t-95 142.5t-33 168.5
t33 168.5t95 143t142 95.5t167.5 33t167.5 -33t142 -96q84 -84 113.5 -197.5t0 -226.5t-113.5 -198v0v0zM721 182l-174 101v276q0 18 -12.5 30t-29.5 12t-29.5 -12t-12.5 -30v-295q0 -17 32 -36q2 -4 19 -13l173 -106q15 -8 29.5 -3.5t23.5 19.5q8 15 2 31.5t-21 25.5v0v0z
M721 182z" />
    <glyph glyph-name="qq" unicode="&#xe67f;" 
d="M770 199l-1 -27q8 -5 9.5 -5.5t3.5 -3.5t4 -5q3 -5 -0.5 -11t-7.5 -8q-2 2 -3 10v2.5t-1 2.5q0 3 -1 3l-2 -2q-4 -18 -6 -21q-1 0 -2 2q0 3 -1 5q-1 1 -4.5 6.5t-7.5 12.5t-7 15q-1 2 -1 4q-1 2 -2 2q-1 -2 -2.5 -6t-2.5 -5q-9 -29 -25 -51q-1 -2 -4.5 -6t-6.5 -7t-3 -4
q1 -1 15 -8t26 -16.5t12 -19.5q-4 -2 -21 -4q-5 -1 -5 -3q0 -1 10 -2.5t11 -4.5q0 -5 -6 -11q-11 -10 -38 -16q-15 -4 -33 -3q-19 1 -35 -1q-27 -1 -63 10l-26 9q-3 1 -4 3t-2 2.5t-7 0.5q-7 0 -10 -0.5t-5.5 -1t-6.5 -3.5q-1 -1 -5 -3q-26 -17 -52 -21q-10 -1 -16 2t-14 3
h-8.5h-8.5t-11.5 -2t-22.5 -1q-34 0 -57 14q-10 7 -17 20l-20 5l1 14q14 5 15 5q4 3 10 10q8 9 19 13l6 1l1 1l1 1l-5 2q1 1 4 1t5.5 0.5t3.5 1.5q-1 3 -3.5 6.5t-6 7t-5.5 4.5l-11 14q-10 13 -15 26q0 1 -1.5 5t-2.5 6q-1 3 -2 5.5t-1 3.5t-1 2l-2 2v0h-1q-1 1 -1 2l-1 -1
v-1q-1 -2 -3 -5.5t-3 -5.5q-4 -7 -13.5 -16.5t-15.5 -9.5q-1 1 -4.5 6t-5.5 6q-1 -1 -1 -4.5t-2 -4.5l-5 10q-1 5 -6 8t-9 5t-5.5 2t-2.5 1.5t-1 2.5v7q0 5 2 7l7.5 7t8.5 9q3 4 11 26.5t13 30.5q11 20 27 38q7 8 20.5 19.5l13.5 11.5q-1 4 -9 6q-3 1 -5 1q-4 1 -10 2t-8 1
v10q1 1 10.5 3.5t14.5 5.5t8 9q-3 1 -16.5 5t-16.5 6l-1 3q3 0 12 1.5t13 2.5q7 4 9.5 5.5t5 5t5.5 6.5q2 1 2 4q1 2 0.5 7.5t0.5 7.5q0 1 1.5 5t1.5 5q12 44 30 72q13 22 33.5 42.5t39.5 28.5q29 12 43 15q24 4 25 4q2 0 9.5 -4.5t9.5 -4.5q3 -1 14 -0.5t13 1.5q14 6 24 6
q18 -1 43 -10.5t41 -21.5q1 -1 2.5 -2l3 -2t2.5 -2q8 -5 18.5 -17t15.5 -21q1 -2 5 -8.5t6 -10.5q16 -33 21 -66q3 -23 3.5 -24.5t10.5 -19.5q5 -10 6 -22l-23 -6v-10q2 -1 4.5 -1.5t3.5 -1t2.5 -1.5t2.5 -2.5t2 -3.5q-15 -8 -15 -9q2 -1 6 -1t6.5 -1t4.5 -4q7 -7 11 -12
q13 -15 27 -46t16 -50q-23 -20 -24 -20v0zM69 320v-37l2 -25q14 -141 104.5 -249t225.5 -143q23 -6 44 -9l23 -3l24 -2h40q1 0 10.5 0.5t25 2.5t35 6t46 12.5t53.5 21.5q68 32 123 89q56 56 88 126q33 73 40 148l2 24v39q-1 2 -1.5 11.5t-2 25t-5 35.5t-12.5 47t-21 55
q-32 70 -87 127q-112 114 -270 130l-24 2h-40l-25 -2q-34 -3 -67 -12q-128 -35 -215 -133q-18 -19 -36 -45q-60 -88 -75 -193q-1 -3 -2 -11t-1 -13q0 -1 -0.5 -7t-1 -11.5t-0.5 -6.5v0zM740 181q1 0 2 -2q0 -2 1 -4q3 -8 7 -15t7.5 -12.5t4.5 -6.5q1 -2 1 -5q1 -2 2 -2
q2 3 6 21q1 5 3 1v-2q1 -1 1 -2.5v-2.5q1 -8 3 -10q4 2 7.5 8t0.5 11q-2 2 -4 5t-10 8q-2 1 -3 1l1 27l-1 -1q-1 -1 -1 -3v-13h-27v0zM330 94l15 -8q0 5 -4 9q-3 1 -6.5 0.5t-4.5 -1.5v0z" />
    <glyph glyph-name="qita" unicode="&#xe606;" 
d="M885 467q0 -9 -6.5 -15.5t-15.5 -6.5h-286q-9 0 -15 6.5t-6 15.5v285q0 9 6 15.5t15 6.5h286q9 0 15.5 -6.5t6.5 -15.5v-285v0zM885 61q0 -9 -6.5 -15t-15.5 -6h-286q-9 0 -15 6t-6 15v286q0 9 6 15.5t15 6.5h286q9 0 15.5 -6.5t6.5 -15.5v-286v0zM499 61q0 -9 -6.5 -15
t-15.5 -6h-285q-9 0 -15.5 6t-6.5 15v286q0 9 6.5 15.5t15.5 6.5h285q9 0 15.5 -6.5t6.5 -15.5v-286zM334 610zM165 610q0 70 49.5 119.5t119.5 49.5t120 -49.5t50 -119.5t-50 -119.5t-120 -49.5t-119.5 49.5t-49.5 119.5z" />
    <glyph glyph-name="im" unicode="&#xe621;" 
d="M662 629q-44 48 -109 75q-70 29 -148 29q-133 0 -228 -77q-45 -37 -70 -85q-26 -50 -26 -105q0 -64 35 -120q32 -52 87 -88l10 -150l116 99q34 -7 68 -8q93 -80 227 -80q39 0 80 8l103 -87l9 133q56 35 88.5 88t32.5 114q0 97 -79 169.5t-196 84.5zM328 230l-5 1l-90 -77
l-8 116l-5 3q-55 36 -85.5 86t-30.5 107q0 101 88.5 173t212.5 72q64 0 122.5 -21.5t100.5 -59.5h-1.5h-2.5q-129 0 -220.5 -74.5t-91.5 -180.5q0 -84 61 -152q-23 2 -45 7zM804 192l-10 -7l-1 -11l-6 -88l-69 59l-8 7l-11 -3q-38 -8 -75 -8q-120 0 -205 68.5t-85 165
t85 165t205 68.5t205.5 -68.5t85.5 -164.5q0 -55 -30 -103q-29 -47 -81 -80zM473.5 399q-10.5 0 -18.5 -7.5t-8 -18.5t8 -18.5t18.5 -7.5t18.5 7.5t8 18.5t-8 18.5t-18.5 7.5zM624.5 399q-10.5 0 -18.5 -7.5t-8 -18.5t8 -18.5t18.5 -7.5t18.5 7.5t8 18.5t-8 18.5t-18.5 7.5z
M775.5 399q-10.5 0 -18.5 -7.5t-8 -18.5t8 -18.5t18.5 -7.5t18 7.5t7.5 18.5t-7.5 18.5t-18 7.5z" />
    <glyph glyph-name="leixing" unicode="&#xe65e;" 
d="M66 756q0 31 21.5 52.5t51.5 21.5h235q31 0 52.5 -21.5t21.5 -52.5v-235q0 -30 -21.5 -51.5t-52.5 -21.5h-235q-30 0 -51.5 21.5t-21.5 51.5v235v0zM140 247v-235h-1h235v0v235v-1h-235q1 0 1 1v0zM66 247q0 30 21.5 51.5t51.5 21.5h235q31 0 52.5 -21.5t21.5 -51.5v-235
q0 -31 -21.5 -52.5t-52.5 -21.5h-235q-30 0 -51.5 21.5t-21.5 52.5v235v0zM650 756v-235q0 1 -1 1h235v-1v235v0h-235h1v0zM576 756q0 31 21.5 52.5t51.5 21.5h235q31 0 52.5 -21.5t21.5 -52.5v-235q0 -30 -21.5 -51.5t-52.5 -21.5h-235q-30 0 -51.5 21.5t-21.5 51.5v235v0z
M650 247v-235h-1h235v0v235v-1h-235q1 0 1 1v0zM576 247q0 30 21.5 51.5t51.5 21.5h235q31 0 52.5 -21.5t21.5 -51.5v-235q0 -31 -21.5 -52.5t-52.5 -21.5h-235q-30 0 -51.5 21.5t-21.5 52.5v235v0v0zM576 247z" />
    <glyph glyph-name="dengji" unicode="&#xe63a;" 
d="M250 371h512h-512zM464 336h-64v112q0 16 -16 16t-16 -16v-128v-6q5 -10 16 -10h80q16 0 16 16t-16 16zM835 454l-51 52v54q0 41 -27.5 68.5t-68.5 27.5h-54l-52 51q-28 29 -68 29t-69 -29l-51 -51h-55q-41 0 -68.5 -27.5t-27.5 -68.5v-54l-51 -52q-29 -28 -29 -68
t29 -69l51 -51v-55q0 -41 27.5 -68.5t68.5 -27.5h55l51 -51q29 -29 69 -29t68 29l52 51h54q41 0 68.5 27.5t27.5 68.5v55l51 51q29 26 29 67.5t-29 69.5zM813 339l-61 -61v-70q0 -26 -19 -45t-45 -19h-70l-61 -61q-19 -19 -46.5 -19t-46.5 19l-61 61h-70q-27 0 -45.5 19
t-18.5 45v70l-61 61q-19 19 -19 46.5t19 46.5l61 61v70q0 27 18.5 45.5t45.5 18.5h70l61 61q19 19 46.5 19t46.5 -19l61 -61h70q26 0 45 -18.5t19 -45.5v-70l61 -61q19 -22 19 -48t-19 -45zM643 464q-13 4 -19 -13l-48 -96l-48 99q-4 13 -19 13q-15 -5 -10 -19l64 -128v-3
v-3q0 -4 3 -4l4 -3q3 0 3 -3v0v0h3h3v0v0q3 0 3 3l4 3l3 4v3v3l64 128q9 10 -10 16z" />
    <glyph glyph-name="redu1" unicode="&#xe631;" 
d="M815 301q-29 61 -43 113.5t-15 82t5 53.5t10 30.5t7 8.5q2 2 0 4.5t-4 1.5q-6 -2 -16.5 -7t-34 -22t-41 -37t-29 -53t-6.5 -69q-19 16 -38.5 37t-49 65.5t-45 89.5t-12.5 107t34 121q2 2 0 4t-4 1q-7 -3 -19 -9.5t-39 -28t-47 -48.5q-93 -122 -29 -306q22 -81 -36 -155
q11 39 9 79q-3 106 -95 159q-2 1 -4 -0.5t-2 -3.5q2 -8 3.5 -15t4 -34t1.5 -48.5t-8.5 -47.5t-21.5 -43q-37 -44 -57.5 -104t-5.5 -117q29 -103 179 -155q37 -12 77 -19q3 0 4 3t-2 4q-112 47 -65 158q43 90 23 136q59 -32 48 -86q0 -2 2 -3.5t4 0t7 6t15.5 16t20 24.5
t18.5 32t13.5 38t2 43t-12.5 47q10 -6 19.5 -13.5t21.5 -23.5t18.5 -34.5t6 -47.5t-11.5 -62q-6 -23 0.5 -45.5t12.5 -30t11 -12.5q2 -2 4.5 -0.5t1.5 4.5q-2 4 -3.5 9.5t-3 20.5t0.5 28t11 29t26 27q-11 -61 13 -89q39 -46 31 -94q-6 -38 -45 -63q-3 -2 -1.5 -4.5t4.5 -1.5
q142 46 187 142q41 88 -10 208z" />
    <glyph glyph-name="xingbie" unicode="&#xe616;" 
d="M777 445v245l64 -64v0q9 -10 23 -10t23.5 10t9.5 23.5t-9 23.5v0l-111 111l-34 33l-144 -144v0q-10 -10 -10 -24t9.5 -23.5t23.5 -9.5t24 10v0l64 64v-245q-89 -12 -148.5 -80t-59.5 -159q0 -4 1 -9q-8 20 -29 22v0h-1h-2h-1h-153v116q89 12 148.5 80t59.5 159
q0 100 -70.5 170.5t-170.5 70.5t-170.5 -70.5t-70.5 -170.5q0 -91 59.5 -159t148.5 -80v-116h-157v0v0q-13 0 -23 -10t-10 -23.5t10 -23.5t23 -10v0v0h157v-156v0q0 -14 9.5 -23.5t23.5 -9.5t23.5 9.5t9.5 23.5v0v156h157v0q11 1 19.5 8.5t10.5 17.5q10 -90 78.5 -151.5
t161.5 -61.5q100 0 170.5 70.5t70.5 170.5q0 91 -60 159t-148 80zM285.5 375q-81.5 0 -139 57.5t-57.5 139t57.5 139t139 57.5t139 -57.5t57.5 -139t-57.5 -139t-139 -57.5zM743.5 7.5q-82.5 -0.5 -140.5 58t-58 140.5t58 140t140.5 58.5t140.5 -58t58 -140.5t-58 -140
t-140.5 -58.5z" />
    <glyph glyph-name="yundonglanqiu" unicode="&#xe65f;" 
d="M479 785zM400 785q0 33 23 56t56 23t56 -23t23 -56t-23 -56t-56 -23t-56 23t-23 56zM784 606q-4 17 -20 23q-59 19 -142 74q-9 6 -20 4.5t-18 -8.5q-70 -15 -125 -40q-20 7 -33 -8q-36 -39 -85 -106q-20 -28 -30.5 -41t-26.5 -29.5t-31 -26.5q-10 -7 -13 -19t4 -23
q9 -14 26 -14q9 0 16 5q20 12 39.5 31.5t31 35t34.5 45.5q33 45 51 67q9 -23 26 -44q43 -55 51 -135l-110 -144q-4 -5 -5 -11q-20 -74 -35 -181q-7 -56 -12 -68q-21 -8 -20 -31q0 -12 9 -20.5t21 -8.5h1q22 1 36 18q8 11 13 29q6 18 13 73q14 99 32 168l110 144h8l-66 -184
q-8 -20 9 -33q8 -8 19 -8q8 0 15 4q24 13 70 66q22 26 32 35q13 -4 24 4q11 7 13.5 19.5t-4.5 22.5q-11 17 -31 19q-20 1 -43 -19l30 84q2 6 2 12q6 7 7.5 12.5t1 12.5t-2 30.5t-1.5 50.5q0 45 -21 130q51 -30 93 -46q9 -42 13 -71q4 -34 2 -42q-3 -13 3 -24t18 -15
q4 -1 9 -1q22 0 29 22q10 31 -17 160zM286 291zM204 291.5q0 33.5 24 57.5t58 24t57.5 -24t23.5 -57.5t-23.5 -57.5t-57.5 -24t-58 24t-24 57.5z" />
    <glyph glyph-name="fensi" unicode="&#xe604;" 
d="M633 260q5 0 10 -1q19 -2 34.5 -18t17.5 -44v-13q-5 -67 -115 -144q-110 77 -116 144v13q3 28 18.5 44t33.5 18q6 1 11 1q18 0 29 -7t24 -22q12 15 23.5 22t29.5 7zM859 197q-33 85 -82 146q-40 49 -85 78q46 29 73.5 77t27.5 104q0 88 -62.5 150.5t-150.5 62.5
q-59 0 -108 -29.5t-77 -78.5q-11 1 -22 1q-78 0 -133 -55t-55 -132q0 -49 23.5 -91t63.5 -68q-38 -25 -72 -67q-44 -54 -73 -128q-36 -92 -46 -211l26 -3q18 203 109 320v0q16 24 46 49q19 15 36 25q18 10 36 17q-53 13 -87.5 57t-34.5 100q0 66 47 113.5t114 47.5q4 0 9 -1
q-15 -38 -15 -79q0 -56 27.5 -104t73.5 -77q-36 -23 -70 -60h1h-1v0q-11 -12 -23 -28v0q-2 -3 -5 -7q-1 -1 -1 -2q-41 -55 -69 -127q-41 -106 -53 -241l27 -3q21 238 128 372q2 2 5 6v0q2 2 6 7q22 24 45 43q36 30 70 42q-59 17 -96.5 66.5t-37.5 112.5q0 77 54.5 131.5
t131.5 54.5t131.5 -54.5t54.5 -131.5q0 -64 -38.5 -113.5t-98.5 -66.5q17 -6 35 -16v0q44 -23 86 -73v0l4 -4t2 -3q108 -134 130 -373l26 3q-12 135 -53 241z" />
    <glyph glyph-name="dengji1" unicode="&#xe6d9;" 
d="M984 -64h-944q-7 0 -11.5 4.5t-4.5 11.5t4.5 11.5t11.5 4.5h944q7 0 11.5 -4.5t4.5 -11.5t-4.5 -11.5t-11.5 -4.5zM672 20q-7 0 -11.5 4.5t-4.5 11.5v792q0 7 4.5 11.5t11.5 4.5t11.5 -4.5t4.5 -11.5v-792q0 -7 -4.5 -11.5t-11.5 -4.5zM496 20q-7 0 -11.5 4.5t-4.5 11.5
v504q0 7 4.5 11.5t11.5 4.5t11.5 -4.5t4.5 -11.5v-504q0 -7 -4.5 -11.5t-11.5 -4.5zM160 20q-7 0 -11.5 4.5t-4.5 11.5v584q0 7 4.5 11.5t11.5 4.5t11.5 -4.5t4.5 -11.5v-584q0 -7 -4.5 -11.5t-11.5 -4.5zM836 20q-7 0 -11.5 4.5t-4.5 11.5v672q0 7 4.5 11.5t11.5 4.5
t11.5 -4.5t4.5 -11.5v-672q0 -7 -4.5 -11.5t-11.5 -4.5zM332 20q-7 0 -11.5 4.5t-4.5 11.5v336q0 7 4.5 11.5t11.5 4.5t11.5 -4.5t4.5 -11.5v-336q0 -7 -4.5 -11.5t-11.5 -4.5z" />
    <glyph glyph-name="paixingbang" unicode="&#xe661;" 
d="M409 78q0 -19 -13.5 -32t-31.5 -13v0q-19 0 -32 13t-13 32v408q0 19 13 32t32 13v0q18 0 31.5 -13t13.5 -32v-408zM261 78q0 -19 -13.5 -32t-31.5 -13v0q-19 0 -32 13t-13 32v224q0 18 13 31.5t32 13.5v0q18 0 31.5 -13.5t13.5 -31.5v-224zM557 78q0 -19 -13 -32t-32 -13
v0q-19 0 -32 13t-13 32v612q0 19 13 32t32 13v0q19 0 32 -13t13 -32v-612zM705 78q0 -19 -13 -32t-32 -13v0q-18 0 -31.5 13t-13.5 32v284q0 18 13.5 31t31.5 13v0q19 0 32 -13t13 -31v-284zM853 78q0 -19 -13 -32t-32 -13v0q-18 0 -31.5 13t-13.5 32v174q0 19 13.5 32
t31.5 13v0q19 0 32 -13t13 -32v-174z" />
    <glyph glyph-name="globus" unicode="&#xe65d;" 
d="M512 896q-104 0 -199 -40.5t-163.5 -109t-109 -163.5t-40.5 -199t40.5 -199t109 -163.5t163.5 -109t199 -40.5t199 40.5t163.5 109t109 163.5t40.5 199t-40.5 199t-109 163.5t-163.5 109t-199 40.5zM864 599h-97q-20 82 -54 145q94 -52 151 -145zM925 384q0 -58 -17 -116
h-122q7 59 7 116t-7 116h122q17 -58 17 -116zM99 384q0 58 17 116h122q-7 -59 -7 -116t7 -116h-122q-17 58 -17 116zM330 384q0 58 8 116h124v-232h-124q-8 58 -8 116zM562 779q66 -47 104 -180h-104v180zM462 779v-180h-104q38 133 104 180zM462 169v-180q-66 47 -104 180
h104zM562 -11v180h104q-38 -133 -104 -180zM562 268v232h124q8 -58 8 -116t-8 -116h-124zM311 744q-34 -63 -55 -145h-96q57 93 151 145zM160 169h96q21 -82 55 -145q-94 52 -151 145zM713 24q34 63 54 145h97q-57 -93 -151 -145z" />
    <glyph glyph-name="huiyuanid" unicode="&#xe626;" 
d="M461 672q-42 28 -46 71.5t27 75.5q28 29 70 29t70 -29q20 -19 25.5 -46t-5.5 -55t-39 -46l211 -230q7 0 7 6q32 22 96 64t96 64q6 6 32 6q9 -4 14 -15.5t5 -22.5q-6 -48 -22 -147t-23 -147q-25 -180 -45 -269q0 -7 -3 -16.5t-3 -15.5q0 -15 -9 -23.5t-23 -8.5h-96h-666
q-27 0 -38 32q-3 25 -12.5 76.5t-13.5 76.5q-4 18 6 28.5t26 10.5h32h628h12q11 -6 17.5 -14.5t2.5 -17.5q0 -10 -9 -18.5t-23 -13.5h-45h-583h7q13 -64 13 -96h6h698q4 0 5 0.5t1 5.5q6 48 22 144t23 144q6 32 15.5 96t16.5 96v7q-7 0 -7 -7q-102 -64 -153 -102
q-26 0 -45 19q-26 29 -71 79t-82 90t-71 74l-6 7q-4 -7 -13.5 -19.5t-12.5 -19.5l-192 -211v-6q-14 -10 -25.5 -10t-25.5 10q-103 64 -154 102q-6 0 -6 6q0 -9 3 -28.5t3 -28.5q3 -29 13 -83.5t13 -83.5q0 -25 -26 -38q-30 0 -38 26q-3 19 -6.5 54t-6.5 54q-6 29 -16 90
t-16 90v19q5 15 21 21.5t30 -2.5q13 -10 38.5 -26t38.5 -25q22 -13 64 -42t64 -41q64 76 205 230v0zM512 723q14 0 23 9t9 23q0 11 -9.5 21.5t-22.5 10.5t-22.5 -10.5t-9.5 -21.5q0 -14 9 -23t23 -9v0z" />
    <glyph glyph-name="v5" unicode="&#xe637;" 
d="M909 88l-158 291q47 72 47 159q0 119 -83.5 203.5t-202 84.5t-202.5 -84.5t-84 -203.5q0 -83 44 -154l-161 -296q-7 -12 2 -23.5t22 -7.5l131 34l48 -134q5 -13 19 -14h1q13 0 19 11l158 292l158 -292q6 -11 19 -11h2q13 1 18 14l48 134l131 -34q14 -4 22.5 7.5t1.5 23.5
zM336 16l-39 108q-3 8 -10 12t-15 2l-102 -27l128 236q67 -77 167 -94zM268 537.5q0 101.5 71.5 174t172.5 72.5t172.5 -72.5t71.5 -174t-71.5 -173.5t-172.5 -72t-172.5 72t-71.5 173.5zM746 138q-8 2 -15 -2t-10 -12l-39 -108l-128 236q100 15 168 90l126 -231zM435 483
h-1q-2 3 -56 136h-30l71 -157h30l70 157h-30q-53 -132 -54 -136zM640.5 550.5q-18.5 14.5 -49.5 14.5q-19 0 -33 -4l2 40h87v23h-10q0 -3 -2 -4t-9 -1h-78l-4 -76q18 7 41 7t37 -11t14 -29q0 -17 -12 -28t-31 -11q-25 0 -34 21q-6 14 -15 14q-4 0 -7.5 -3t-3.5 -8
q0 -12 17 -23.5t42 -11.5q29 0 48 15.5t19 38.5q0 22 -18.5 36.5z" />
    <glyph glyph-name="v3" unicode="&#xe648;" 
d="M909 88l-158 291q47 72 47 159q0 119 -83.5 203.5t-202 84.5t-202.5 -84.5t-84 -203.5q0 -83 44 -154l-161 -296q-7 -12 2 -23.5t22 -7.5l131 34l48 -134q5 -13 19 -14h1q13 0 19 11l158 292l158 -292q6 -11 19 -11h2q13 1 18 14l48 134l131 -34q14 -4 22.5 7.5t1.5 23.5
zM336 16l-39 108q-3 8 -10 12t-15 2l-102 -27l128 236q67 -77 167 -94zM268 537.5q0 101.5 71.5 174t172.5 72.5t172.5 -72.5t71.5 -174t-71.5 -173.5t-172.5 -72t-172.5 72t-71.5 173.5zM746 138q-8 2 -15 -2t-10 -12l-39 -108l-128 236q100 15 168 90l126 -231zM435 483
h-1q-2 3 -56 136h-30l71 -157h30l70 157h-30q-53 -132 -54 -136zM611 548q18 4 27.5 13.5t9.5 21.5q0 16 -15 27.5t-40 11.5q-23 0 -38.5 -11t-18.5 -32l12 -2q7 31 41 31q16 0 25.5 -7.5t9.5 -20.5q0 -28 -43 -28h-7v-10h11q22 0 34.5 -9t12.5 -25t-12 -26.5t-31 -10.5
q-14 0 -23.5 5.5t-12.5 17.5q-5 14 -14 14q-3 0 -8 -2.5t-5 -8.5q0 -12 18.5 -24.5t46.5 -12.5t46.5 14t18.5 33q0 15 -11.5 26.5t-33.5 14.5z" />
    <glyph glyph-name="qiudui" unicode="&#xe6e5;" 
d="M949 357q0 27 -29 53t-73 42q-3 0 -7 4t-6.5 13t2.5 24v0q21 21 34.5 54t13.5 66q0 49 -29 77.5t-70 28.5q-43 0 -71 -28.5t-28 -77.5q0 -33 13.5 -66t34.5 -54q5 -13 1.5 -22.5t-8 -14t-7.5 -4.5q-13 -3 -41 -17v28q0 27 -30.5 53t-78.5 42q-3 0 -6.5 4t-6.5 13t3 24v0
q21 21 34.5 54t13.5 66q0 48 -29.5 76.5t-69.5 28.5q-43 0 -71 -28t-28 -77q0 -33 13 -66t34 -54q6 -14 2.5 -23t-8.5 -13.5t-7 -4.5q-45 -16 -74 -42t-29 -53v-28l-41 21q-2 0 -7 4.5t-8 13.5t2 23q23 17 37 49.5t14 66.5q0 49 -29 77.5t-70 28.5q-43 0 -71 -28.5
t-28 -77.5q0 -33 13.5 -66t34.5 -54v0q5 -16 2 -25.5t-6.5 -12.5t-6.5 -3q-44 -16 -73 -42t-29 -53v-174v0v-4q0 -71 71.5 -128.5t188.5 -82.5v54q0 31 31.5 58t77.5 45q7 3 10 10q4 8 0 20q-23 23 -37 58t-14 69q0 55 32 85.5t77 30.5t77 -29.5t32 -86.5q0 -33 -14 -66.5
t-37 -56.5q-3 -10 -2.5 -16.5t2 -9t3.5 -2.5q46 -15 81 -42t35 -60v-51q118 29 189 85t71 126v4v0v164z" />
    <glyph glyph-name="didian" unicode="&#xe63e;" 
d="M971 -23l-154 264q-7 11 -19 11h-88q-9 0 -15 -6.5t-6 -15.5t6.5 -15t14.5 -6h77l128 -220h-783l128 220h77q9 0 15 6.5t6 14.5q0 10 -6.5 16t-14.5 6h-87q-12 0 -20 -11l-155 -264q-7 -11 0 -21.5t19 -10.5h860q12 0 19 10q4 12 -2 22zM512 448q53 0 90.5 37.5
t37.5 90.5t-37.5 90.5t-90.5 37.5t-90.5 -37.5t-37.5 -90.5t37.5 -90.5t90.5 -37.5zM512 661q35 0 60 -25t25 -60t-25 -60t-60 -25t-60 25t-25 60t25 60t60 25zM284 418l209 -303q5 -8 17 -8v0q8 0 17 8l211 303v2q49 72 49 158q0 115 -81 196t-196 81t-195 -81.5
t-80 -197.5q0 -86 49 -158v0zM512 811q98 0 166.5 -68.5t68.5 -166.5q0 -89 -60 -156h2l-179 -256l-175 256l2 2q-60 63 -60 154q0 98 68.5 166.5t166.5 68.5z" />
    <glyph glyph-name="changshulanqiulanxiebeigai" unicode="&#xe992;" 
d="M739 299q9 -9 21 -14t25 -5t25 5t21 14q9 8 14 21q5 12 5 25t-5 24.5t-14 21t-21 14.5q-13 5 -25.5 5t-24.5 -5t-21 -14q-10 -10 -14 -21q-5 -12 -5 -25t5 -25t14 -21zM891 167q7 7 7.5 19t-7.5 19t-22 1q-8 -5 -39 -17q-1 -1 -5.5 -2t-6 -1.5t-6 -0.5t-8.5 0.5t-10 1.5
t-12 4q2 24 2 43q-1 12 -11 21.5t-22.5 5.5t-19.5 -24q-4 -11 -10 -65q-2 -30 -9 -68q-4 -27 -14.5 -41t-31 -29t-33.5 -31q-10 -11 -13 -22t0.5 -18t10 -12t15 -4.5t16.5 4.5q16 17 40.5 39t38 35t15.5 22q22 -4 38.5 -19t25 -31t18 -31t17.5 -18q20 -9 32 5t3 37
q-13 24 -24.5 39.5t-28 26.5t-28 16.5t-38.5 16.5q6 32 7 52q71 -9 113 26zM905 563q-33 76 -92 135q-58 59 -135 92q-79 33 -166 33t-166 -33q-77 -33 -135.5 -92t-91.5 -135q-33 -79 -33 -166t33 -166q33 -77 92 -135.5t135 -91.5q80 -33 166 -33q49 0 108 15q-5 12 -5 14
v47q-46 -14 -90 -16q61 150 72 332q4 63 1 123q56 -3 107 -14q1 -14 10 -43q25 17 49 14q0 1 -1.5 6t-1.5 7q58 -20 108 -55q4 -2 9 -4v0q0 -51 -15 -102q2 -10 3 -22q29 7 51 -2q21 68 21 126q0 87 -33 166zM457 759q31 -22 54 -82q21 -58 30 -139q-27 -1 -56 -4
q-43 -4 -90 -12q-2 8 -4 14q-22 62 -71 96q-30 20 -64 26q85 83 201 101zM213 607q42 5 77 -19t51 -70q2 -4 3 -7q-85 -19 -193 -56q13 84 62 152zM196 213q-50 85 -50 184v2q3 0 6 1q112 39 200 59q2 -65 -36.5 -130.5t-119.5 -115.5zM469 34q-73 8 -136 44t-108 92
q97 60 140.5 140t38.5 160q75 14 141 16q6 -112 -13 -231.5t-63 -220.5zM714 562q-6 -18 -9 -37q-8 2 -10 2q-47 9 -101 11q-10 92 -34 157q-15 40 -35 68q73 -3 138.5 -33t114.5 -82q-13 -7 -25 -19q-26 -27 -39 -67zM757 512q1 18 7 34q7 24 20.5 39.5t27.5 20.5
q46 -66 60 -144q-53 31 -115 50z" />
    <glyph glyph-name="pengyou" unicode="&#xe71c;" 
d="M401 -64q-336 0 -336 162q0 37 34 67.5t84.5 49t111.5 28.5v6q-31 24 -51.5 57.5t-30 73t-13 74t-3.5 76.5q0 99 55 155t153 56h7q98 0 153 -56t55 -155q0 -42 -3.5 -76.5t-13 -74t-30 -73t-51.5 -57.5v-6q61 -10 111.5 -28.5t84.5 -49t34 -67.5q0 -24 -8.5 -45.5
t-32 -43.5t-61 -37.5t-101.5 -25.5t-148 -10zM405 677q-144 0 -144 -147q0 -39 3 -70t11 -64.5t25.5 -60t43.5 -42.5q15 -10 15 -27v-52q0 -12 -8.5 -21t-20.5 -10q-84 -9 -142.5 -36.5t-58.5 -48.5q0 -98 272 -98q91 0 155.5 11.5t98 33.5t33.5 53q0 21 -58.5 48.5
t-142.5 36.5q-13 1 -21 10t-8 21v52q0 17 15 27q26 16 43.5 42.5t25.5 60t11 64.5t3 70q0 73 -36 110t-108 37h-7v0zM899 132q-13 0 -22.5 9.5t-9.5 22.5t-26.5 33t-73.5 38.5t-97 23.5q-12 2 -20.5 11t-8.5 21v67q0 17 15 27q29 18 49 48t28.5 63.5t11.5 58t3 47.5
q0 40 -12 67.5t-33.5 41.5t-43.5 19.5t-48 5.5q-14 0 -23 9.5t-9 22.5t9 22.5t23 9.5q93 0 147 -53t54 -145q0 -27 -3.5 -55.5t-13.5 -67.5t-33 -75.5t-57 -62.5v-22q54 -10 104.5 -31.5t86 -54.5t35.5 -69q0 -13 -9.5 -22.5t-22.5 -9.5z" />
    <glyph glyph-name="zuji" unicode="&#xe638;" 
d="M819 660q13 0 22 14t9 34q0 21 -9.5 34.5t-24.5 13.5q-13 0 -22 -13.5t-9 -34.5q3 -21 12.5 -34.5t21.5 -13.5zM874 633q11 0 21 10t13 24q5 15 -0.5 27t-16.5 14q-11 0 -21.5 -9.5t-12.5 -24.5q-3 -15 2 -26.5t15 -14.5zM734 674q16 3 26.5 21t7.5 41q-3 22 -16 38
t-28 16q-19 -2 -29.5 -20.5t-8.5 -44.5q3 -23 16.5 -38t31.5 -13zM925 592q8 0 14 9t6 21.5t-6 22t-14 9.5t-14 -9.5t-6 -22t6 -21.5t14 -9zM689 620q-17 0 -32.5 -3.5t-33.5 -12t-28.5 -27.5t-10.5 -46q0 -32 14.5 -57t35 -42t41 -35t35 -45.5t14.5 -63.5
q0 -28 -11.5 -51.5t-27.5 -41t-31.5 -35.5t-26 -43.5t-9.5 -56.5q3 -54 30.5 -85t95.5 -31q49 0 79 38t30 85q0 44 11 83.5t26.5 69.5t30.5 60.5t25.5 69.5t9.5 82q-2 45 -24.5 80.5t-52.5 55t-68.5 32t-67.5 16.5t-54 4zM659 753q-5 33 -25.5 54.5t-42.5 16.5
q-23 -2 -35 -29t-6 -63q5 -33 25 -53.5t43 -18.5q23 3 34.5 29.5t6.5 63.5zM290 674q18 -2 31.5 13t16.5 38q2 25 -8.5 43.5t-25.5 18.5q-18 2 -31.5 -13t-16.5 -38t7.5 -41t26.5 -21zM99 592q8 0 14 9t6 21.5t-6 22t-14 9.5t-14 -9.5t-6 -22t6 -21.5t14 -9zM205 660
q13 0 22 14t9 34.5t-9 34t-22 13.5t-23.5 -14t-10.5 -34t10.5 -34t23.5 -14zM444 534q0 28 -11 47t-29 27.5t-33.5 11.5t-32.5 3q-27 -1 -55.5 -5.5t-68 -17t-69 -32t-51 -54t-22.5 -79.5q-2 -43 7.5 -82t25 -69t31.5 -60.5t27 -70t11 -83.5q0 -47 30.5 -85t78.5 -38
q69 0 96.5 31.5t30.5 84.5q1 32 -10 58.5t-26.5 44.5t-31.5 35.5t-27 40.5t-11 50q0 35 14.5 62t35 45t41 35.5t35 42.5t14.5 57zM433 828q-23 2 -43 -18.5t-25 -53.5q-5 -34 6.5 -60.5t34.5 -31.5t43 15.5t25 56.5q6 33 -6 60t-35 32zM150 633q10 3 15 14.5t2 26.5
q-2 17 -12.5 27t-21.5 7q-10 -2 -15 -13.5t-2 -27.5q3 -17 13 -27t21 -7z" />
    <glyph glyph-name="zhifubao" unicode="&#xe854;" 
d="M959 219v441q0 71 -50.5 121.5t-121.5 50.5h-551q-71 0 -121.5 -50.5t-50.5 -121.5v-551q0 -71 50.5 -121.5t121.5 -50.5h551q63 0 111 40.5t58 101.5q-246 106 -346 154q-63 -76 -129.5 -114t-154.5 -38q-92 0 -148.5 49.5t-48.5 120.5q2 20 8.5 39.5t23 41.5t41 37
t65.5 23t93 3q20 -2 37.5 -4.5t35 -6t28.5 -6t29.5 -8t26.5 -8t30.5 -10l31.5 -10.5q30 56 50 122h-348v34h172v62h-210v38h210v89q2 14 17 14h86v-103h224v-38h-224v-62h183q-25 -101 -74 -186q23 -8 97 -31.5t135 -42.5l62 -19v0v0v0zM312 140q-46 0 -78.5 13t-46 33
t-18.5 38t-2 33q6 30 37 54.5t81 24.5q114 0 248 -65q-48 -63 -105 -97t-116 -34v0v0zM312 140z" />
    <glyph glyph-name="pengyouquan" unicode="&#xe608;" 
d="M255 491v0v0v0zM769 494v-1v0v1zM405 125v0v1v-1zM404 641h1v0h-1zM619 643v0v-1v1zM255 276v1v0v-1zM618 125h-1h1v0zM512 828q-90 0 -172.5 -35.5t-141.5 -94.5t-94.5 -141.5t-35.5 -172.5t35.5 -172.5t94.5 -141.5t141.5 -94.5t172.5 -35.5t172.5 35.5t141.5 94.5
t94.5 141.5t35.5 172.5t-35.5 172.5t-94.5 141.5t-141.5 94.5t-172.5 35.5v0zM674 465v301q51 -22 95 -56q19 -16 34 -31q39 -39 66 -86q6 -11 12 -23l-207 -208q3 19 1 38q0 7 -1 14v51v0zM466 795q24 3 47 3q54 0 106 -14q13 -3 26 -8v-294q-12 16 -26 28q-5 5 -11 9
l-249 249q51 21 107 27v0zM188 641q15 19 31 35q39 38 86 65q11 7 23 13l208 -208q-19 3 -38 2l-14 -2h-352q22 51 56 95v0zM102 338q-3 24 -3 47q0 54 15 106q3 13 7 26h294q-16 -12 -28 -26q-5 -5 -9 -11l-249 -249q-20 51 -27 107zM350 305v-301q-51 22 -95 57
q-19 15 -35 31q-38 38 -65 85q-6 11 -13 23l208 208q-3 -19 -1 -38q0 -7 1 -14v-51v0zM512 518q55 0 94.5 -39.5t39.5 -94.5t-39.5 -94.5t-94.5 -39.5t-94.5 39.5t-39.5 94.5t39.5 94.5t94.5 39.5v0zM558 -27q-24 -3 -47 -3q-54 0 -106 14q-13 3 -26 8v294q12 -16 26 -28
q6 -5 11 -9l249 -249q-51 -21 -107 -27v0v0zM834 125q-15 -19 -31 -34q-39 -39 -86 -66q-11 -6 -23 -12l-208 207q19 -3 38 -1q7 0 14 1h352q-21 -51 -56 -95v0zM903 251h-294q16 12 28 26q5 5 9 11l249 249q21 -51 27 -107q3 -24 3 -47q0 -54 -14 -106l-8 -26v0zM769 277v0
v0v0z" />
    <glyph glyph-name="wode" unicode="&#xe61f;" 
d="M601 0zM512 852q-129 0 -221 -90.5t-92 -218.5q0 -69 29.5 -130.5t82.5 -106.5l14 -11l-16 -8q-97 -52 -157 -144t-67 -201l-1 -6v-1q0 -8 5.5 -13.5t13 -5.5t13 5.5t5.5 13.5v0l2 13q9 107 73 194.5t163 126.5l4 2l5 -2q75 -35 144 -35q70 0 135 31l32 19l27 17
q56 44 87.5 107.5t31.5 134.5q0 128 -92 218.5t-221 90.5v0v0zM704 353q-80 -78 -192 -78t-191.5 78.5t-79.5 189.5t79.5 189.5t191.5 78.5t191.5 -78.5t79.5 -189.5t-79 -190v0v0zM939 -54q-6 90 -48 169.5t-113 134.5l-4 3l-1 1q-6 3 -12 3q-24 0 -24 -17q0 -11 9 -18
l2 -1l2 -2q128 -92 142 -272v-2v-1v-1.5v-0.5q0 -10 7 -17t17 -7q9 0 16 6.5t7 15.5l1 6h-1v0v0z" />
    <glyph glyph-name="inquiry" unicode="&#xe620;" 
d="M448 0h-213q-45 0 -76 31t-31 76v554q0 45 31 76t76 31h469q45 0 76 -31t31 -76v-128q0 -9 -6 -15t-15.5 -6t-15.5 6t-6 15v128q0 26 -19 45t-45 19h-469q-26 0 -45 -19t-19 -45v-554q0 -26 19 -45t45 -19h213q10 0 15.5 -6t5.5 -15.5t-5.5 -15.5t-15.5 -6v0zM708 341
q61 0 105.5 -44t44.5 -105t-44.5 -105t-105.5 -44t-105 44t-44 105t44 105t105 44zM708 384q-80 0 -136 -56t-56 -136t56 -136t136 -56t136 56t56 136t-56 136t-136 56v0zM644.5 222q-8.5 0 -17.5 8q-6 7 -6 15.5t6 14.5q34 34 81 34t73 -25q6 -7 6 -15.5t-6.5 -14.5t-15 -6
t-14.5 6q-17 17 -43 17q-27 0 -47 -26q-8 -8 -16.5 -8zM905 -38l-90 89q-6 7 -6 15.5t6 14.5v0q6 6 14.5 6t15.5 -6l89 -90q7 -6 7 -14.5t-7 -14.5v0q-6 -7 -14.5 -7t-14.5 7zM619 555h-299q-10 0 -15.5 5.5t-5.5 15.5v0q0 10 5.5 15.5t15.5 5.5h299q9 0 15 -5.5t6 -15.5v0
q0 -10 -6 -15.5t-15 -5.5zM619 427h-299q-10 0 -15.5 5.5t-5.5 15.5v0q0 10 5.5 15.5t15.5 5.5h299q9 0 15 -5.5t6 -15.5v0q0 -10 -6 -15.5t-15 -5.5zM589 188q0 -9 6 -15.5t15 -6.5t15 6.5t6 15.5t-6 15t-15 6t-15 -6t-6 -15z" />
    <glyph glyph-name="chakanxiangxi" unicode="&#xe60b;" 
d="M407 455h-323q-13 0 -22.5 9.5t-9.5 22.5v323q0 13 9.5 22.5t22.5 9.5h323q13 0 22.5 -9.5t9.5 -22.5v-323q0 -13 -9.5 -22.5t-22.5 -9.5zM891 455h-322q-14 0 -23.5 9.5t-9.5 22.5v323q0 13 9.5 22.5t23.5 9.5h322q14 0 23.5 -9.5t9.5 -22.5v-323q0 -13 -9.5 -22.5
t-23.5 -9.5zM407 -24h-323q-13 0 -22.5 9.5t-9.5 22.5v323q0 13 9.5 22.5t22.5 9.5h323q13 0 22.5 -9.5t9.5 -22.5v-323q0 -13 -9.5 -22.5t-22.5 -9.5zM991 -43l-103 103q44 59 39 134t-59 128q-59 59 -142.5 59t-143 -59.5t-59.5 -143t59.5 -143t142.5 -59.5q65 0 119 40
l103 -103q10 -9 19 0l25 25q9 9 0 19zM628.5 82q-40.5 40 -40.5 96.5t40.5 97t97 40.5t96.5 -40.5t40 -97t-40 -96.5t-96.5 -40t-97 40z" />
    <glyph glyph-name="huoyue" unicode="&#xe87b;" 
d="M512 895q-104 0 -199 -40.5t-163.5 -109t-109 -163.5t-40.5 -199t40.5 -198.5t109 -163t163.5 -109t199 -40.5t198.5 40.5t163 109t109 163t40.5 198.5t-40.5 199t-109 163.5t-163 109t-198.5 40.5v0zM512 -55q-89 0 -170 35t-140 93.5t-93.5 139.5t-34.5 170t34.5 170.5
t93.5 140t140 93.5t170 35t170 -35t139.5 -93.5t93.5 -140t35 -170.5t-35 -170t-93.5 -139.5t-139.5 -93.5t-170 -35v0zM760 388q-8 0 -14 3.5t-8 7.5l-2 4l-37 81l-68 -294q-2 -9 -8.5 -14t-11.5 -5h-5q-8 0 -14 3.5t-8 7.5l-1 4l-97 229l-78 -180q-4 -6 -10 -10t-9 -4h-4
q-8 0 -14 3.5t-8 6.5l-2 4l-51 99l-59 -69q-2 -5 -7.5 -7.5t-9.5 -2.5l-4 -1q-11 0 -17 6.5t-7 12.5l-1 6q0 4 1.5 8.5t3.5 6.5l1 2l84 99q4 4 9 6.5t8 2.5l3 1q8 0 14 -4t8 -7l2 -4l43 -85l82 186q3 7 9 10.5t9 3.5h4q8 0 13.5 -3.5t7.5 -7.5l3 -3l89 -212l67 289
q2 9 8.5 14.5t12.5 5.5l5 1q7 0 12.5 -3.5t7.5 -7.5l3 -3l68 -151l2 -11q-1 -12 -7.5 -18t-11.5 -7h-6v0z" />
    <glyph glyph-name="bisai" unicode="&#xe69c;" 
d="M885 563q0 56 -31.5 99.5t-79.5 55.5v115h-527v-115q-48 -12 -79.5 -55.5t-31.5 -99.5q0 -62 37.5 -108t92.5 -50q30 -74 96.5 -119t148 -45t147.5 45t96 119q55 4 93 50t38 108v0zM166 563q0 43 23 77.5t58 45.5v-182q0 -34 8 -67q-38 9 -63.5 44.5t-25.5 81.5v0z
M601 427l-91 47l-91 -47l18 101l-74 71l102 15l45 92l46 -92l101 -15l-73 -71l17 -101v0zM765 437q9 33 9 67v182q35 -11 57.5 -45.5t22.5 -77.5q0 -46 -25.5 -81.5t-63.5 -44.5v0zM634 76h-72v117h-104v-117h-71q-11 0 -19 -7.5t-8 -18.5l-13 -85q0 -11 7.5 -19t18.5 -8
h274q11 0 19 8t8 19l-14 85q0 11 -7.5 18.5t-18.5 7.5v0z" />
    <glyph glyph-name="bisai1" unicode="&#xe60c;" 
d="M747 623l5 49h-122l14 76l110 18l-110 19l-19 104l-19 -104l-104 -18l-4 21l-16 -87l-93 -15l81 -14h-198l5 -49h-141l3 -19q0 -3 6.5 -38t18 -94t22.5 -103l3 -6q20 -27 44.5 -45.5t46.5 -26t36 -10t25 -3.5q55 -76 154 -83v-255h-144q-8 0 -14 -6t-6 -14t6 -13.5
t14 -5.5h326q8 0 14 5.5t6 13.5t-6 14t-14 6h-143v255q98 8 150 83q17 1 36.5 5t54 24.5t60.5 55.5l3 6q4 16 8 34t7.5 35.5t7.5 35.5t7 34t5.5 30.5t5 26.5t4 20.5t2 13.5l0.5 5l4 19h-142zM514 701l-12 64l104 -17l14 -76h-94l80 14zM217 380q-20 84 -43 210h106l23 -229
q5 -22 17 -47q-61 12 -103 66zM512.5 227q-41.5 0 -75 14.5t-51.5 32.5t-30.5 41.5t-15.5 33.5t-5 17l-26 273h178l11 -56l10 56h207l-28 -278q-1 -6 -4 -16t-15.5 -32.5t-30 -40t-50.5 -31.5t-74.5 -14zM807 380q-42 -54 -102 -66q12 27 14 43l24 233h107
q-22 -122 -43 -210v0z" />
    <glyph glyph-name="shiyue01" unicode="&#xe662;" 
d="M512 -51q-88 0 -168.5 34.5t-139 93t-93 139t-34.5 168.5t34.5 169t93 139t139 92.5t168.5 34.5t168.5 -34.5t139 -92.5t93 -139t34.5 -169t-34.5 -168.5t-93 -139t-139 -93t-168.5 -34.5zM512 795q-111 0 -206 -55.5t-150 -150t-55 -205.5t55 -205.5t150 -150t206 -55.5
t206 55.5t150 150t55 205.5t-55 205.5t-150 150t-206 55.5zM304 369v-50q90 0 150 9v47q-37 -6 -82 -6q75 66 94 154h-67q-5 -19 -12 -40h-10q-11 -2 -19 0q39 41 62 119h-72q-11 -71 -50 -119v-48h65q-24 -36 -59 -66zM545 516h66v-160h9q34 0 63 -18v228h-115l5 20
q2 11 3 16h-72q-5 -71 -39 -103v-40q56 17 80 57zM299 287v-48q93 0 166 17v46q-73 -17 -166 -15zM552 335q12 9 27 14q-12 52 -35 105h-59q21 -64 29 -119h38zM716 235.5q0 39.5 -28 67.5t-68 28t-68 -28t-28 -67.5t28 -67.5q27 -27 67.5 -27t68.5 27q28 28 28 67.5z
M669 198q7 -6 0.5 -12.5t-13.5 -0.5l-37 37l-36 -36q-6 -7 -12.5 -0.5t-0.5 13.5l36 36l-36 37q-7 6 -0.5 13t13.5 0l36 -37l38 37q6 7 12.5 0.5t0.5 -13.5l-37 -37z" />
    <glyph glyph-name="shiyuezhuangtai01" unicode="&#xe680;" 
d="M109 784l2 -797l868 797h-870zM379 674l2 -5q3 -11 6.5 -24t6.5 -25t4 -24q1 -5 2 -9l24 27q-2 10 -4 19q-3 11 -5 18l-1 6l27 6l2 -5q3 -12 6.5 -28.5t6 -34t5.5 -33.5q1 -8 1 -15l37 47l20 -19l-3 -4q-2 -3 -9 -12t-16 -21q-10 -12 -19 -25q-10 -13 -18 -23l-3 -4
l-23 15l3 4q3 6 4.5 10t0.5 9q0 12 -3 30q-1 13 -3 26l-2 -2q-6 -6 -11 -13q-6 -7 -12 -13.5t-11 -12.5l-3 -4l-23 15l3 4q2 4 2.5 6.5t0.5 4.5q0 7 -1.5 18.5t-4.5 24.5t-6.5 26.5t-7.5 25.5l-2 5zM473 391q-46 -20 -84 -24q-33 -3 -65 6q8 -26 6 -59q-3 -40 -24 -92l-2 -4
l-31 7l3 6q22 52 24 90q2 32 -9 56l-83 -82l-20 20l86 86q-3 4 -13 14q-10 9 -20 21l-44 -45q4 -11 7 -22q4 -12 6 -24l1 -5l-28 -9l-1 6q-5 25 -15 51t-23 48l-3 5l26 15l3 -5q4 -10 9 -19l6 -12l36 36l-38 39l21 21l38 -39l73 73l20 -20l-73 -73l20 -20q10 -11 14 -14v0
l83 83l20 -21l-80 -80q13 -5 26 -7q17 -3 35.5 -1.5t38.5 7.5t44 17l6 3l8 -31zM570 537q-3 -3 -9 -11q-6 -10 -13 -19q-7 -10 -16 -22q-8 -12 -15.5 -22t-12.5 -18l-2 -3q-5 -6 -6 -8l-3 -5l-23 18l3 4q2 3 7.5 11t13.5 18q7 10 16 22q8 12 15 23q8 11 14 19t8 12l4 5
l22 -19zM655 588q-4 -7 -13 -16l-32 -32l-24 17l31 31q6 6 9 10q2 4 2.5 7t-1.5 6q-2 4 -7 10q-2 2 -9 10l-18 20q-10 11 -22.5 23.5t-23 24t-18.5 20.5l-6 6l-49 -49q7 -18 12 -36l2 11l5 -1q7 0 17 -2l21 -2q10 -2 21 -3q11 -2 19 -3l5 -1l-4 -29l-6 1q-8 1 -18 3l-22 4
t-20.5 3t-16.5 2l-28 -10l-1 7q-3 14 -7.5 29t-10 29t-11.5 26.5t-12 23.5l-2 5l24 14l3 -5q10 -17 18 -37l62 62l4 -4q2 -2 11 -11.5t21 -22.5t27 -29q14 -15 26.5 -28.5t22 -23.5t11.5 -12v0q7 -9 11 -16q4 -8 3.5 -15.5t-6.5 -16.5z" />
    <glyph glyph-name="account" unicode="&#xe722;" 
d="M668 324q68 40 108.5 110t40.5 152q0 126 -89.5 215.5t-215.5 89.5t-215.5 -89.5t-89.5 -215.5q0 -82 40.5 -152t108.5 -110q-126 -48 -204.5 -160t-78.5 -251q0 -15 10.5 -25.5t25 -10.5t25 10.5t10.5 25.5q0 100 49.5 185t134.5 134.5t185 49.5t185 -49.5t134.5 -134.5
t49.5 -185q0 -15 10.5 -25.5t25 -10.5t25 10.5t10.5 25.5q-1 139 -80 251t-205 160zM279 585.5q0 96.5 68 165t165 68.5t165 -68.5t68 -165t-68 -165t-165 -68.5t-165 68.5t-68 165z" />
    <glyph glyph-name="liliangceshi" unicode="&#xe6b3;" 
d="M970 87q0 1 -0.5 3t-1.5 3l-493 746q-7 10 -20 10h-310q-19 0 -23 -18l-32 -160q-2 -12 5 -19l75 -85q9 -11 25 -7l135 49l109 -246q-73 46 -163 40h-13q-16 0 -41 -7t-56 -25t-57 -43.5t-44 -68t-18 -93.5q0 -44 11.5 -81.5t29.5 -62t41.5 -44t45 -30.5t41.5 -18
t30.5 -9t12.5 -2h4h599q64 0 95 40q8 12 13 26.5t6 28t1 27t-2 23t-3.5 16.5zM918 -14q-16 -21 -56 -21h-598q-10 1 -25 5t-42.5 18.5t-49 34.5t-38 58t-16.5 85q0 44 15.5 79t37.5 55t47.5 33.5t43 18t26.5 4.5h15q13 3 36.5 0t48 -8.5t56.5 -26.5t63 -55l73 -165
q6 -14 21 -14q2 0 9 3q9 3 12.5 12t-0.5 18l-73 165l-4 7l-145 332l57 21q9 3 13 12t1 18q-4 9 -12.5 13t-18.5 1l-221 -80l-57 65l27 129h279l483 -732q14 -56 -8 -85z" />
    <glyph glyph-name="search" unicode="&#xe609;" 
d="M1010 -40v0v0v0q14 -16 14 -35q0 -22 -15 -38q-15 -15 -37 -15h-1v0q-9 0 -18 3q-12 4 -21 14v-1l-282 285q-102 -72 -228 -72q-12 0 -25 1q-25 2 -49 8q-36 3 -79.5 21.5t-82.5 48.5q-24 15 -53 47.5t-53 73.5q-41 68 -49 150l1 -12q-4 16 -4 56v-7v10q0 36 6 70
q15 93 72 168q14 27 55 61t91 57l-13 -4q15 10 56 24q60 22 127 22v0q28 0 53 -3q67 -10 129 -42q101 -52 157 -149l-3 9q14 -16 35 -74q29 -77 25 -156q-4 -131 -90 -236l283 -285h-1v0zM759 482v17q0 64 -24 123q-27 72 -85 124l14 -12q-10 10 -27 24q-65 55 -149 72
q-29 5 1 0q-33 5 -65 5q-20 0 -40 -2q-4 0 -9 -1l-6 -1q-91 -15 -161 -73q-26 -17 -54.5 -57t-44.5 -87q-1 4 -5 -5q-13 -33 -16 -95q-4 -85 31 -159q44 -96 134 -147q0 -4 17 -12.5t47.5 -18t61.5 -13.5q1 -2 15 -3t38 0t48 5q62 11 115 43q10 2 37.5 25t51.5 51l-3 -5
q14 12 41 63l10 20l-20 -37q5 9 11 21v0q35 67 36 145v-10z" />
    <glyph glyph-name="redu" unicode="&#xe60d;" 
d="M800 594q-1 -9 -3.5 -23t-12 -44t-21.5 -42q-1 6 -2.5 16t-12 41t-26.5 62t-48 72.5t-73.5 78.5t-107 75t-144.5 66q4 -6 8.5 -16.5t15 -44t16.5 -67t6 -81.5t-11.5 -92t-41 -94t-76.5 -93q-26 63 -63 116q0 -5 -1.5 -14t-8 -35.5t-16 -50.5t-28 -52.5t-41.5 -49.5
q-11 -9 -21 -35t-14 -63.5t-1 -79.5t22 -85.5t50 -80.5t88 -66t131 -40h58l-34 46q-75 113 37 300q1 -3 4 -8.5t3 -7.5l16 -70l56 44q2 1 9.5 7.5t19.5 22.5t23.5 36t22.5 52t15 68q31 -34 54 -74t42 -96t17.5 -127t-27.5 -147q-6 -11 -19.5 -22.5t-23.5 -17.5l-10 -6h83h1
q11 4 23 8.5t42 20.5t54.5 35.5t53 53t45.5 72t23 94t-5.5 118.5t-48 146t-97.5 174zM733 -68q29 105 20 189t-40 150t-68 108.5t-64.5 66.5t-29.5 23q16 -151 -57 -236l-17 -17q-5 16 -19.5 37t-26.5 34l-12 12q-47 -65 -73.5 -125t-32 -106t-1 -78.5t16.5 -59.5
q-150 35 -195 158q-15 41 -16.5 87.5t5.5 75.5t15 39q50 44 79 114l5 -12l25 -60l49 44q54 49 88 107.5t45.5 117t10 111t-13.5 103.5q74 -37 130.5 -84t85 -86.5t46.5 -78.5t22 -57.5t4 -25.5l9 -96l70 68l21 28q130 -235 74 -388q-11 -33 -31 -61t-43 -48t-42.5 -32
t-38.5 -22z" />
    <glyph glyph-name="pengyou1" unicode="&#xe656;" 
d="M412 -64q-349 0 -349 168q0 38 35.5 70t87.5 51.5t115 28.5v7q-32 24 -53.5 59t-31 76t-13 77t-3.5 79q0 103 57 161t159 58h7q101 0 158.5 -58t57.5 -161q0 -43 -4 -79t-13.5 -77t-31 -76t-53.5 -59v-7q63 -9 115.5 -28.5t88 -51.5t35.5 -70q0 -25 -9 -47t-33.5 -45
t-63.5 -39t-105 -26.5t-153 -10.5zM416 705q-150 0 -150 -153q0 -41 3 -72.5t11.5 -66.5t26.5 -62.5t45 -44.5q16 -10 16 -28v-53v0q0 -12 -9 -22t-21 -11q-88 -9 -148.5 -37.5t-60.5 -50.5q0 -102 283 -102q142 0 219.5 27t77.5 75q0 22 -60.5 50.5t-148.5 37.5
q-12 1 -20.5 10.5t-8.5 22.5v0v53q0 18 15 28q27 17 45 44.5t26.5 62.5t11.5 66.5t3 72.5q0 153 -149 153h-7zM928 140v0q-14 0 -23.5 9.5t-9.5 23.5v0q0 13 -27.5 33.5t-76.5 40t-100 25.5q-13 1 -21.5 10.5t-8.5 21.5v1v68q0 18 15 28q30 19 50.5 50t29.5 66t12 60.5
t3 49.5q0 41 -12.5 70t-34.5 43t-45 20t-50 6h-2q-13 0 -23 9.5t-10 23.5t10 23.5t23 9.5h2q96 0 152.5 -55t56.5 -150q0 -28 -4 -57.5t-14 -70t-34 -78.5t-59 -65v-23q56 -10 108 -32.5t89 -57t37 -70.5v0q0 -14 -9.5 -23.5t-23.5 -9.5v0z" />
  </font>
</defs>
</svg>
